<?xml version="1.0" encoding="UTF-8"?>
<svg id="Layer_2" data-name="Layer 2" xmlns="http://www.w3.org/2000/svg" viewBox="0 0 1393.16 1396.89">
  <defs>
    <style>
      .cls-1 {
        fill: #fff;
      }
    </style>
  </defs>
  <g id="Ebene_1" data-name="Ebene 1">
    <path class="cls-1" d="M1327.3,880.19c-.77-3.59-1.77-7.07-3-10.39l-2.3-6.18-2.43-6.14c-1.63-4.08-3.27-8.11-4.93-12.11-1.71-4.01-3.47-7.99-5.22-11.92l-2.64-5.87c-.89-1.95-1.84-3.9-2.76-5.83-1.85-3.87-3.72-7.69-5.6-11.48-1.91-3.79-3.9-7.55-5.86-11.27-3.87-7.43-8.1-14.73-12.24-21.86-12.78-21.62-26.77-41.82-41.63-60.55.2-6.03.31-12.08.31-18.15,0-7.82-.18-15.6-.5-23.34,2.29-4.04,4.54-8.13,6.71-12.28,1.32-2.49,2.83-4.82,4.49-6.97,1.64-2.15,3.4-4.11,5.31-5.89,3.82-3.55,8.16-6.34,12.81-8.23,4.44-1.8,9.16-2.78,13.95-2.78,5.25,0,10.59,1.17,15.77,3.71,32.58,15.94,64.57,34.77,95.6,56.35-5.21-44.03-14.45-87.29-27.54-128.89-13.09-41.61-30.01-81.54-50.33-119.06-1.92-3.5-4.05-6.84-6.32-10-1.14-1.58-2.31-3.11-3.52-4.59-1.24-1.47-2.52-2.89-3.83-4.25-2.62-2.73-5.36-5.25-8.21-7.53-2.89-2.26-5.91-4.27-8.98-6.02-30.64-17.49-62.02-31.63-93.22-42.71-3.91-1.38-7.86-2.68-11.75-3.97l-5.84-1.9c-1.94-.62-3.93-1.21-5.88-1.8-3.92-1.17-7.81-2.31-11.68-3.42-3.91-1.07-7.83-2.09-11.71-3.09l-5.81-1.46-5.85-1.35c-3.89-.88-7.76-1.73-11.6-2.55-1.38-.27-2.75-.53-4.12-.79-7.22-8.85-14.72-17.46-22.47-25.83-.19-1.11-.38-2.21-.58-3.31l-1-5.16c-.68-3.44-1.36-6.93-2.1-10.4-1.22-5.48-1.44-10.94-.78-16.14.64-5.18,2.14-10.08,4.48-14.52,4.67-8.85,12.62-15.74,23.36-18.44,35.19-8.77,71.79-14.93,109.45-18.29-64.74-61.04-139.59-108.36-218.88-139.75-3.71-1.46-7.49-2.64-11.25-3.61-1.88-.48-3.77-.9-5.65-1.26-1.89-.33-3.78-.59-5.66-.8-3.15-.34-6.27-.52-9.34-.52-.6,0-1.2,0-1.79.02-3.66.11-7.27.52-10.75,1.14-34.72,6.26-67.89,15.53-98.94,27.09-15.55,5.87-30.55,12.19-45.03,19.24-10.11,4.84-19.96,10.03-29.53,15.44-8.27-1.62-16.6-3.05-24.99-4.29-.93-.79-1.85-1.58-2.79-2.36-2.67-2.24-5.37-4.52-8.1-6.73l-8.31-6.55c-4.45-3.53-8.14-7.45-10.99-11.85-2.84-4.38-4.85-9.16-5.91-14.06-1.06-4.88-1.18-9.91-.22-14.86.96-4.96,2.99-9.81,6.23-14.25,21.29-29.38,45.35-57.68,72.07-84.45C794.24.38,781,0,767.82,0c-31.05,0-61.81,2.11-91.99,6.1-43.03,5.72-85.23,15.32-125.71,28.8-15.15,5.09-28.27,13.74-37.3,24.71-11.31,13.51-21.78,27.53-31.54,41.52-4.83,7.14-9.55,14.09-14,21.31-2.23,3.59-4.44,7.12-6.57,10.71-2.13,3.62-4.21,7.23-6.26,10.82-2.06,3.57-4.03,7.22-5.97,10.86-1.94,3.64-3.85,7.23-5.69,10.87-3.65,7.36-7.21,14.54-10.47,21.93-4.64,10.2-8.84,20.52-12.7,30.81-7.41,4.09-14.71,8.36-21.91,12.78-.97,0-1.94-.02-2.91-.02-.25,0-.5,0-.75,0-.33,0-.67,0-1,0-1.13,0-2.27,0-3.4,0-2.04,0-4.09,0-6.12.06l-10.58.3c-.59.02-1.18.02-1.76.02-2.22,0-4.38-.12-6.5-.38-2.67-.33-5.28-.89-7.78-1.66-5.01-1.55-9.61-3.91-13.55-6.95-7.9-6.11-13.33-15.16-14.12-26.2-2.56-36.2-2.29-73.32.96-111-71.48,53.23-130.87,118.91-175.46,191.43-2.12,3.36-3.94,6.88-5.51,10.43-1.57,3.56-2.95,7.12-4,10.75-1.04,3.64-1.84,7.28-2.38,10.89-.27,1.81-.48,3.6-.61,5.39-.12,1.8-.17,3.59-.15,5.37.04,4.42.1,8.81.19,13.16.14,4.39.33,8.76.53,13.09l.33,6.47.46,6.48c.32,4.31.66,8.58,1.03,12.82.43,4.28.88,8.52,1.36,12.73l.74,6.29.86,6.29c.59,4.18,1.19,8.31,1.84,12.43.7,4.14,1.41,8.25,2.15,12.32.38,2.04.73,4.05,1.14,6.08l1.25,6.07c.85,4.03,1.69,8.02,2.61,11.99,1.93,7.99,3.8,15.77,6.05,23.54,2.98,10.8,6.39,21.41,10.04,31.78-3.04,7.87-5.91,15.82-8.59,23.86-.94.78-1.88,1.55-2.81,2.34-2.67,2.24-5.38,4.5-8.04,6.8l-7.9,7.04c-4.25,3.77-8.75,6.72-13.59,8.76-4.81,2.04-9.89,3.18-14.87,3.38-.52.02-1.03.03-1.55.03-4.47,0-8.91-.78-13.13-2.4-4.71-1.8-9.15-4.66-12.95-8.62-25.21-26.1-48.87-54.78-70.55-85.79-10.33,43.4-16.3,87.36-18.11,130.91-1.81,43.57.56,86.71,6.75,128.69,2.43,15.74,8.62,30.11,17.87,40.89,11.33,13.45,23.31,26.19,35.37,38.24,3.08,3,6.15,5.96,9.22,8.88l4.6,4.35,4.71,4.27c3.14,2.82,6.27,5.61,9.4,8.35,3.18,2.73,6.39,5.41,9.57,8.05,21.66,17.97,44.29,33.73,67.24,47.32,2.74,8.03,5.66,15.98,8.77,23.83-1.52,8.04-2.87,16.19-3.96,24.41-.38,2.79-1.02,5.51-1.82,8.08-.78,2.57-1.78,5.03-2.97,7.36-2.37,4.65-5.5,8.77-9.22,12.14-6.51,5.91-14.91,9.55-24.29,9.55-1.29,0-2.6-.07-3.93-.21-36.09-3.79-72.62-10.54-109.19-20.34,20.03,39.87,43.65,77.35,70.24,111.88,26.59,34.53,56.15,66.11,88.01,94.33,3,2.62,6.05,5.1,9.3,7.25,3.24,2.16,6.55,4.09,9.92,5.78,3.34,1.71,6.85,3.07,10.31,4.22,3.48,1.14,6.95,2.03,10.44,2.63,33.17,5.6,65.8,8.28,97.48,8.28,29.83,0,58.81-2.38,86.61-6.96,7.23,4.37,14.56,8.59,22,12.63,4,7.14,8.19,14.25,12.63,21.26,1.5,2.39,2.75,4.88,3.79,7.37,1.05,2.47,1.86,5,2.45,7.54,1.17,5.09,1.41,10.26.73,15.23-1.37,9.92-6.49,19.13-15.65,25.27-30.1,20.26-62.45,38.53-96.75,54.51,40.89,17.68,83.06,31.28,125.68,40.7,42.62,9.42,85.67,14.64,128.28,15.77.69.01,1.38.02,2.06.02,7.26,0,14.35-.76,21.06-2.46,3.67-.91,7.21-1.98,10.61-3.36,3.4-1.39,6.64-2.98,9.69-4.77,30.41-17.81,58.26-37.89,83.46-59.37l4.69-4.02,4.63-4.12c3.07-2.75,6.09-5.5,9.07-8.25,2.98-2.81,5.91-5.64,8.81-8.46,2.9-2.81,5.75-5.63,8.55-8.54,2.81-2.89,5.57-5.77,8.29-8.65,2.72-2.9,5.39-5.89,8.02-8.82,2.11-2.33,4.17-4.71,6.22-7.1,8.38-1.3,16.69-2.78,24.93-4.46,1.15.44,2.3.87,3.45,1.28,6.54,2.36,13.21,4.77,19.94,6.88,2.68.86,5.24,1.94,7.64,3.2,2.4,1.26,4.64,2.63,6.73,4.21,4.16,3.14,7.67,6.93,10.34,11.18,5.34,8.5,7.32,18.82,4.26,29.43-10.04,34.87-23.09,69.65-39.12,103.95,42.72-12.75,83.8-29.44,122.49-49.62,38.7-20.18,75-43.83,108.36-70.34,3.11-2.5,6.03-5.16,8.75-7.93,2.72-2.77,5.16-5.77,7.4-8.79,4.51-6.03,7.94-12.62,10.34-19.26,21.41-60.32,32.1-120.5,33.07-177.59,7.29-8.01,14.34-16.24,21.14-24.68l8.44-3.15,4.95-1.89,4.9-1.99c6-2.42,12.13-3.61,18.06-3.61,4.42,0,8.73.66,12.81,1.97,9.54,3.08,17.7,9.71,22.18,19.81,14.72,33.15,27.11,68.15,36.92,104.67,48.95-74.3,82.67-156.4,99.78-240.03,1.54-7.84,2.19-15.66,1.65-23.23-.26-3.78-.68-7.46-1.45-11.05ZM559.84,1022.34c-41.83-17.69-79.43-43.06-111.77-75.39-32.34-32.34-57.7-69.94-75.39-111.77-18.27-43.2-27.54-89.21-27.54-136.73s9.27-93.53,27.54-136.73c17.69-41.83,43.06-79.43,75.39-111.77,32.34-32.34,69.94-57.7,111.77-75.39,43.2-18.27,89.21-27.54,136.73-27.54s93.53,9.27,136.73,27.54c41.82,17.69,79.43,43.06,111.77,75.39,32.34,32.34,57.7,69.94,75.39,111.77,18.27,43.2,27.54,89.21,27.54,136.73s-9.27,93.53-27.54,136.73c-17.69,41.83-43.06,79.43-75.39,111.77-32.34,32.34-69.94,57.7-111.77,75.39-43.2,18.27-89.21,27.54-136.73,27.54s-93.53-9.27-136.73-27.54Z"/>
  </g>
</svg>