{
	"asset":{
		"generator":"Maxon Cinema 4D 2025.1.2 (#200000219)",
		"version":"2.0"
	},
	"scenes":[{
		"nodes":[0]
	}],
	"nodes":[{
		"name":"lines_3",
		"translation":[0.0,
		0.0,
		0.0],
		"rotation":[0.28300735354423525,
		-0.26388296484947207,
		0.9220007658004761,
		0.013683146797120572],
		"scale":[1.0,
		1.0,
		1.0],
		"children":[1,
		2,
		3]
	},
	{
		"name":"Capsule.2",
		"mesh":0,
		"translation":[0.0,
		0.0,
		0.0],
		"rotation":[0.37551796436309817,
		0.24511761963367463,
		-0.5102676749229431,
		0.7338463664054871],
		"scale":[1.0,
		1.0,
		1.0]
	},
	{
		"name":"Capsule.1",
		"mesh":1,
		"translation":[0.0,
		0.0,
		0.0],
		"rotation":[0.7147130966186523,
		0.005050655920058489,
		0.32179805636405947,
		0.6209715604782105],
		"scale":[1.0,
		1.0,
		1.0]
	},
	{
		"name":"Capsule",
		"mesh":2,
		"translation":[0.0,
		0.0,
		0.0],
		"rotation":[0.6212989687919617,
		-0.1218683049082756,
		0.0964212566614151,
		0.7680095434188843],
		"scale":[1.0,
		1.0,
		1.0]
	}],
	"meshes":[{
		"name":"Capsule.2",
		"primitives":[{
			"attributes":{
				"POSITION":1,
				"NORMAL":2,
				"TEXCOORD_0":3
			},
			"indices":0
		}]
	},
	{
		"name":"Capsule.1",
		"primitives":[{
			"attributes":{
				"POSITION":5,
				"NORMAL":6,
				"TEXCOORD_0":7
			},
			"indices":4
		}]
	},
	{
		"name":"Capsule",
		"primitives":[{
			"attributes":{
				"POSITION":9,
				"NORMAL":10,
				"TEXCOORD_0":11
			},
			"indices":8
		}]
	}],
	"accessors":[{
		"bufferView":0,
		"type":"SCALAR",
		"componentType":5123,
		"count":768,
		"byteOffset":0,
		"min":[0],
		"max":[167]
	},
	{
		"bufferView":1,
		"type":"VEC3",
		"componentType":5126,
		"count":168,
		"byteOffset":0,
		"min":[-0.10000000149011612,
		-1.0,
		-0.10000000149011612],
		"max":[0.10000000149011612,
		1.0,
		0.10000000149011612]
	},
	{
		"bufferView":1,
		"type":"VEC3",
		"componentType":5126,
		"count":168,
		"byteOffset":12,
		"min":[-0.9951829314231873,
		-1.0,
		-0.9951829314231873],
		"max":[0.9951829314231873,
		1.0,
		0.9951829314231873]
	},
	{
		"bufferView":1,
		"type":"VEC2",
		"componentType":5126,
		"count":168,
		"byteOffset":24,
		"min":[0.0,
		0.0],
		"max":[1.0,
		1.0]
	},
	{
		"bufferView":2,
		"type":"SCALAR",
		"componentType":5123,
		"count":768,
		"byteOffset":0,
		"min":[0],
		"max":[167]
	},
	{
		"bufferView":3,
		"type":"VEC3",
		"componentType":5126,
		"count":168,
		"byteOffset":0,
		"min":[-0.10000000149011612,
		-1.0,
		-0.10000000149011612],
		"max":[0.10000000149011612,
		1.0,
		0.10000000149011612]
	},
	{
		"bufferView":3,
		"type":"VEC3",
		"componentType":5126,
		"count":168,
		"byteOffset":12,
		"min":[-0.9951829314231873,
		-1.0,
		-0.9951829314231873],
		"max":[0.9951829314231873,
		1.0,
		0.9951829314231873]
	},
	{
		"bufferView":3,
		"type":"VEC2",
		"componentType":5126,
		"count":168,
		"byteOffset":24,
		"min":[0.0,
		0.0],
		"max":[1.0,
		1.0]
	},
	{
		"bufferView":4,
		"type":"SCALAR",
		"componentType":5123,
		"count":768,
		"byteOffset":0,
		"min":[0],
		"max":[167]
	},
	{
		"bufferView":5,
		"type":"VEC3",
		"componentType":5126,
		"count":168,
		"byteOffset":0,
		"min":[-0.10000000149011612,
		-1.0,
		-0.10000000149011612],
		"max":[0.10000000149011612,
		1.0,
		0.10000000149011612]
	},
	{
		"bufferView":5,
		"type":"VEC3",
		"componentType":5126,
		"count":168,
		"byteOffset":12,
		"min":[-0.9951829314231873,
		-1.0,
		-0.9951829314231873],
		"max":[0.9951829314231873,
		1.0,
		0.9951829314231873]
	},
	{
		"bufferView":5,
		"type":"VEC2",
		"componentType":5126,
		"count":168,
		"byteOffset":24,
		"min":[0.0,
		0.0],
		"max":[1.0,
		1.0]
	}],
	"bufferViews":[{
		"buffer":0,
		"byteOffset":0,
		"byteLength":1536,
		"target":34963
	},
	{
		"buffer":0,
		"byteOffset":1536,
		"byteLength":5376,
		"target":34962,
		"byteStride":32
	},
	{
		"buffer":1,
		"byteOffset":0,
		"byteLength":1536,
		"target":34963
	},
	{
		"buffer":1,
		"byteOffset":1536,
		"byteLength":5376,
		"target":34962,
		"byteStride":32
	},
	{
		"buffer":2,
		"byteOffset":0,
		"byteLength":1536,
		"target":34963
	},
	{
		"buffer":2,
		"byteOffset":1536,
		"byteLength":5376,
		"target":34962,
		"byteStride":32
	}],
	"buffers":[{
		"uri":"data:application/octet-stream;base64,",
		"byteLength":6912
	},
	{
		"uri":"data:application/octet-stream;base64,",
		"byteLength":6912
	},
	{
		"uri":"data:application/octet-stream;base64,",
		"byteLength":6912
	}]
}