<?xml version="1.0" encoding="UTF-8"?>
<svg id="Layer_2" xmlns="http://www.w3.org/2000/svg" viewBox="0 0 1008.72 1003.13">
  <defs>
    <style>
      .cls-1 {
        fill: none;
      }

      .cls-2 {
        fill: #fff;
      }
    </style>
  </defs>
  <g id="Ebene_1">
    <g>
      <g>
        <g>
          <path class="cls-2" d="M977.29,659.95l1.59-4.05c.52-1.35.95-2.74,1.43-4.11l2.79-8.24c1.83-5.5,3.82-10.95,5.3-16.56l4.74-16.73c1.39-5.63,2.65-11.29,3.96-16.93.63-2.83,1.34-5.64,1.9-8.48l1.54-8.56,1.53-8.56c.48-2.86,1.08-5.7,1.39-8.58l2.19-17.24.54-4.31.35-4.33.66-8.66-6.07-3.97c-2.44,35.71-8.84,71.19-19.08,105.53-.44,1.54-1.06,2.95-1.84,4.21-.83,1.25-1.83,2.35-2.92,3.3-2.2,1.9-4.85,3.2-7.67,3.85-5.64,1.29-11.94-.05-16.81-4.09l2.97-8.8c.53-1.46.92-2.96,1.35-4.44l1.27-4.47,2.54-8.93,1.27-4.47c.43-1.49.72-3.01,1.09-4.51l4.17-18.1,3.28-18.28c3.9-24.45,5.89-49.18,6.05-73.93-18.61,3.45-33.67,9.18-45.78,16.36-1.51.9-2.98,1.82-4.4,2.77-1.42.95-2.79,1.92-4.2,2.9-2.78,1.97-5.4,4.04-7.85,6.18s-4.74,4.37-6.88,6.67c-2.15,2.3-4.07,4.7-6.12,7.13-15.37,19.59-23.94,43.83-32.85,70.98,0,0,.48-1.03,1.49-2.83.53-.89,1.08-2,1.77-3.28.69-1.28,1.5-2.72,2.45-4.29.95-1.57,2.03-3.28,3.26-5.09.61-.91,1.26-1.84,1.95-2.8.69-.96,1.42-1.93,2.09-2.96,2.77-4.07,6.13-8.46,10.14-12.97,2.08-2.24,3.98-4.59,6.2-6.91,2.19-2.33,4.55-4.66,7.1-6.98,5.22-4.62,10.59-9.26,16.94-13.59,12.87-8.61,28.02-16.3,47.47-20.28-2.64,37.35-9.52,74.49-21.49,110.01-3.03-3.17-6.08-6.29-9.15-9.35l-2.31-2.29-2.38-2.29-4.78-4.53c-6.39-5.98-12.83-11.76-19.33-17.33l-3.4,11.97c-.29,1-.55,2-.86,2.99l-1,2.94-2,5.89c3.78,3.65,7.53,7.37,11.26,11.17l5.57,5.76,5.36,5.81c7.12,7.82,14.13,15.93,21.01,24.34,4.44,5.44,10.93,7.86,17,7.19,6.06-.65,11.71-4.43,14.24-10.88Z"/>
          <path class="cls-2" d="M895.25,800.37l-2.83-2.37c-7.83-6.55-14.27-13.36-19.63-20.21,4.72-6.02,9.49-11.99,14.15-18.06l6.65-9.34,3.32-4.67c1.1-1.56,2.25-3.09,3.25-4.73,2.54-3.96,5.61-7.47,9.12-10.52,1.75-1.53,3.63-2.93,5.58-4.24,1.88-1.35,3.86-2.58,5.94-3.69,4.15-2.22,8.66-3.97,13.44-5.19,2.39-.61,4.85-1.09,7.36-1.43,2.47-.37,4.96-.6,7.52-.69l3.33-.12,6.86-13.41c1.18-2.22,2.2-4.51,3.23-6.8l3.11-6.86c-3.5.34-6.99.65-10.47.93-2.54.21-5.03.56-7.46,1.04-1.21.24-2.41.52-3.59.83-1.19.31-2.4.62-3.57.99-4.71,1.43-9.11,3.37-13.13,5.76-2.01,1.19-3.92,2.5-5.72,3.92-.9.71-1.76,1.45-2.63,2.2-.89.74-1.75,1.51-2.58,2.3-3.33,3.17-6.19,6.77-8.5,10.79l-2.12,3.69c-.73,1.22-1.52,2.4-2.28,3.6l-4.6,7.17-4.6,7.17c-1.58,2.36-3.27,4.64-4.9,6.97l-4.94,6.94c-1.65,2.31-3.25,4.66-5.06,6.85l-10.53,13.4c-5.74-8.11-10.11-16.24-13.44-24.16-1.66-3.96-3.06-7.87-4.23-11.72-.29-.96-.57-1.92-.83-2.87-.27-.95-.54-1.92-.82-2.89-.52-1.92-1-3.82-1.42-5.7-.84-3.76-1.49-7.44-1.97-11.02-.24-1.79-.43-3.55-.59-5.29-.07-.86-.14-1.72-.21-2.59-.08-.87-.16-1.74-.24-2.61-.57-6.9-.56-13.34-.17-19.25.18-6.04.68-11.58,1.43-16.46.19-1.22.38-2.4.59-3.54.17-1.16.33-2.28.49-3.38.34-2.17.71-4.16,1.09-5.96.76-3.6,1.54-6.45,2.14-8.4.3-.98.47-1.77.63-2.28.15-.52.24-.79.24-.79-.41.9-.79,1.82-1.22,2.71-.44.89-.88,1.77-1.32,2.65-.86,1.76-1.7,3.53-2.51,5.29-.81,1.76-1.58,3.52-2.33,5.29-.37.89-.73,1.77-1.1,2.65-.4.86-.8,1.72-1.2,2.57-3.17,6.83-5.54,13.85-8.04,20.52-1.16,3.39-2.17,6.8-3.02,10.24-.92,3.39-1.81,6.73-2.45,10.15-.65,3.42-1.13,6.88-1.42,10.38-.42,3.41-.65,6.87-.67,10.39-.02,3.52.16,7.1.55,10.74.1.91.21,1.82.34,2.74.12.91.23,1.82.35,2.71.26,1.81.57,3.64.94,5.48,1.49,7.38,3.91,15.03,7.4,22.97,1.77,3.99,3.71,7.96,5.95,12.01,2.25,4.05,4.79,8.18,7.66,12.37,5.73,8.38,12.75,17.01,21.29,25.81h0s2.93,2.91,2.93,2.91l5.53-5.81,2.76-2.91,2.63-3.03,10.5-12.13Z"/>
          <path class="cls-2" d="M806.44,831.62c4.91-4.25,8.27-9.58,9.94-15.85.21-.79.39-1.57.54-2.36.13-.81.23-1.62.31-2.44.15-1.63.19-3.27.11-4.91-.15-3.29-.75-6.6-1.8-9.93-2.09-6.68-5.76-12.56-10.86-17.77-5.09-5.22-10.9-9.06-17.27-11.66-3.18-1.3-6.29-2.22-9.32-2.76-1.51-.27-3.01-.44-4.48-.52-.74-.04-1.47-.05-2.2-.04-.74,0-1.49,0-2.23.04-5.92.27-10.8,2.09-14.8,5.58-.98.9-1.96,1.75-2.82,2.72-.86.96-1.64,2-2.33,3.12-1.37,2.23-2.39,4.78-3.08,7.65-1.31,5.81-1.47,11.81-.07,18.56,1.38,6.71,4.09,13.12,8.29,19.08,4.2,5.96,9.31,10.66,15.5,13.96,6.17,3.27,12.69,4.92,19.13,4.37,3.25-.23,6.34-.92,9.26-2.06,1.46-.57,2.88-1.25,4.25-2.03,1.36-.8,2.72-1.65,3.92-2.74ZM766.49,817.77c-1.25.88-2.46,1.17-3.64.86-1.17-.31-2.15-1.02-2.95-2.12-.8-1.1-1.16-2.3-1.1-3.59.06-1.3.65-2.33,1.75-3.11,2.81-2.13,5.55-4.35,8.33-6.52l4.16-3.26,2.08-1.63c.7-.54,1.39-1.09,2.04-1.68l7.99-6.93,4-3.46c.66-.58,1.35-1.14,1.99-1.74l1.91-1.83c.98-.94,2.11-1.32,3.4-1.13,1.29.18,2.4.76,3.33,1.74.81.86,1.27,1.95,1.37,3.27.1,1.31-.36,2.46-1.37,3.42l-1.96,1.87c-.65.62-1.36,1.19-2.04,1.79l-4.1,3.54-8.19,7.1c-.67.61-1.38,1.17-2.09,1.72l-2.13,1.67-4.26,3.35c-2.85,2.22-5.66,4.5-8.54,6.68Z"/>
          <path class="cls-2" d="M654.6,868.06c-1.19,11.14-2.73,22.41-4.62,33.8-1.96,11.15-4.28,22.38-6.95,33.72-.67,2.83-1.36,5.67-2.07,8.52l-1.09,4.27-1.14,4.19c-1.55,5.58-3.19,11.19-4.91,16.81-1.73,5.62-3.55,11.26-5.45,16.92-.95,2.83-1.93,5.66-2.93,8.5-1.01,2.8-2.05,5.55-3.1,8.34,33.69-6.61,66.74-16.55,98.49-29.63l1.17-7.18-16.21,6.42-4.06,1.59c-1.35.54-2.7,1.07-4.09,1.52l-8.25,2.81-8.26,2.79c-2.76.9-5.49,1.93-8.3,2.67l-16.77,4.78c3.43-11.82,6.48-23.55,9.16-35.18,5.35-1.73,10.67-3.57,16-5.37,2.66-.92,5.34-1.78,7.98-2.75l7.85-3.09,7.85-3.1,3.92-1.55,1.96-.78,1.92-.87,15.38-6.95,3.84-1.74c1.27-.6,2.51-1.27,3.77-1.9l7.51-3.84c4.99-2.6,10.07-5.03,14.89-7.92l14.62-8.41c4.8-2.93,9.49-6.03,14.24-9.04l-2.31-3.42h0c-14.19-20.01-28.8-33.97-42.95-43.49-1.76-1.17-3.55-2.32-5.33-3.42-1.78-1.09-3.56-2.12-5.34-3.08-3.55-1.92-7.07-3.59-10.57-5.01-3.5-1.42-6.97-2.61-10.42-3.56-3.46-.97-6.99-1.91-10.45-2.53-27.67-4.98-55.19,1.31-85.98,9.53,0,0,1.41-.25,3.95-.47,2.54-.23,6.2-.43,10.76-.36,2.29.09,4.74,0,7.39.08,2.65.06,5.5.22,8.51.49,6.08.69,12.62,1.25,19.74,2.71,1.78.36,3.58.76,5.42,1.21.93.24,1.85.48,2.77.71.92.22,1.85.45,2.77.67,3.71.95,7.53,2.1,11.43,3.5,3.89,1.38,7.89,3.07,11.88,4.91,3.96,1.78,7.98,3.83,12.01,6.21,8.05,4.73,16.24,10.8,24.06,18.37,7.78,7.51,15.31,16.7,22.01,28.09-28.4,15.99-58.45,29.08-89.53,38.98,1.53-7.39,2.91-14.74,4.15-22.04.62-3.65,1.2-7.29,1.75-10.92.54-3.65,1.08-7.19,1.51-10.9,1.79-14.72,3.02-29.22,3.69-43.49l-11.59,4.56-5.79,2.29c-1.93.77-3.92,1.35-5.88,2.04Z"/>
          <path class="cls-2" d="M627.38,837.52l-10.86,3.08-2.71.78c-.9.27-1.81.53-2.73.71l-5.5,1.25c-7.55,43.88-21.28,87.3-40.88,130.07l3.75-.29c1.25-.09,2.5-.19,3.74-.37l7.47-.94,14.93-1.91c4.23-11.04,8.09-22.1,11.59-33.05.88-2.74,1.73-5.48,2.56-8.21.83-2.74,1.64-5.43,2.41-8.25,1.54-5.58,3-11.14,4.36-16.68,1.36-5.54,2.64-11.05,3.82-16.55.59-2.75,1.16-5.49,1.71-8.22.55-2.72,1.05-5.57,1.54-8.34,1.95-11.14,3.55-22.18,4.79-33.1Z"/>
          <path class="cls-2" d="M526.73,975.31h0c5.71-10.32,11.06-20.64,16.05-30.95,1.25-2.55,2.47-5.21,3.67-7.85,1.2-2.64,2.38-5.28,3.53-7.92,2.31-5.28,4.52-10.55,6.65-15.82s4.16-10.52,6.11-15.76c1.93-5.36,3.77-10.74,5.52-16.09,1.75-5.35,3.41-10.69,4.98-16.02.78-2.66,1.55-5.32,2.29-7.98.74-2.66,1.46-5.27,2.14-8.02-.92.19-1.86.3-2.8.41l-2.81.35-5.61.71-5.61.73c-.94.12-1.87.26-2.8.36l-2.82.2c-3.25,9.9-6.82,19.85-10.71,29.83l-2.98,7.49-3.12,7.31c-2.12,4.87-4.32,9.75-6.6,14.64-2.28,4.88-4.64,9.77-7.08,14.65l-3.72,7.33c-1.26,2.4-2.54,4.77-3.84,7.15-5.2,9.52-10.73,19.03-16.58,28.53-4.29-.03-8.56-.43-12.83-.74l-12.82-.98-3.21-.25-3.19-.39-6.38-.8-12.76-1.63c-2.13-.23-4.23-.68-6.35-1.03l-6.34-1.13-12.67-2.27-12.55-2.87-6.27-1.45-3.14-.73-1.57-.36-1.55-.43c1.79-6.36,3.92-12.23,6.31-17.68,2.4-5.48,5.04-10.54,7.87-15.22,5.66-9.36,12-17.21,18.58-23.8,1.65-1.65,3.31-3.22,4.98-4.71,1.67-1.48,3.38-3.03,5.08-4.44,3.4-2.84,6.83-5.41,10.24-7.72,3.41-2.33,6.79-4.31,10.16-6.25,3.38-2,6.71-3.77,9.96-5.34,3.25-1.57,6.43-2.93,9.5-4.12,3.09-1.32,6.08-2.52,8.94-3.52,2.86-1.01,5.58-1.86,8.13-2.58,1.28-.38,2.51-.64,3.71-1.02,1.2-.36,2.35-.69,3.45-.99,4.41-1.2,8.03-1.91,10.55-2.32,2.52-.41,3.96-.52,3.96-.52-15.99-.32-31.13.27-45.35,1.74-3.56.4-7.07.96-10.55,1.67-3.45.6-6.85,1.23-10.21,2.12-3.36.87-6.69,1.92-9.98,3.16-3.27,1.14-6.48,2.35-9.67,3.85-3.19,1.48-6.34,3.16-9.45,5.07-1.56.94-3.11,1.99-4.64,3-1.52,1-3.04,2.06-4.54,3.18-6.02,4.48-11.9,9.92-17.59,16.44-2.83,3.24-5.65,6.85-8.34,10.58-2.7,3.76-5.35,7.81-7.91,12.18-5.13,8.75-9.95,18.77-14.27,30.24h0s-1.37,3.89-1.37,3.89c25.79,8.55,52.26,15.06,79.1,19.26,26.87,4.04,54.01,5.89,81.12,5.64h0Z"/>
          <path class="cls-2" d="M321.67,930.19c5.24,2.33,10.61,3.27,16.23,2.2,5.59-.99,10.58-3.35,14.98-7.08,4.4-3.74,7.58-8.42,9.65-13.98,2.08-5.56,2.77-11.22,2.2-16.91-.57-5.69-2.25-10.69-5.04-14.98-2.83-4.19-6.33-7.57-10.85-9.57-2.26-1.02-4.58-1.66-7-1.94-1.21-.14-2.44-.18-3.69-.14-1.24.01-2.49.08-3.77.27-5.12.71-9.98,2.75-14.55,6.13-4.58,3.37-8.31,7.65-11.1,12.9-2.79,5.24-4.22,10.71-4.18,16.45.04,5.74,1.58,11.05,4.6,15.94.76,1.21,1.58,2.38,2.48,3.44.92,1.03,1.9,1.98,2.96,2.87,2.1,1.77,4.47,3.25,7.08,4.43Z"/>
        </g>
        <polygon class="cls-1" points="305.4 860.61 312.06 864.44 315.39 866.36 318.81 868.11 292 918.51 288.13 916.52 284.36 914.36 276.82 910.02 305.4 860.61"/>
      </g>
      <g>
        <g>
          <path class="cls-2" d="M143.25,796.64c.88,1.15,1.84,2.24,2.78,3.33l2.84,3.29,5.69,6.57c1.91,2.17,3.76,4.4,5.73,6.53l5.99,6.29,6,6.28,3,3.14c1,1.04,2.08,2.01,3.12,3.02l12.57,11.99,1.57,1.5,1.63,1.43,3.28,2.85,6.56,5.69,6.58,5.67,6.82,5.38,6.83,5.37c2.29,1.78,4.53,3.62,6.92,5.25l14.16,10.07c2.16-1.07,4.3-2.12,6.45-3.23-29.65-20.09-57.04-43.46-81.61-69.49-2.2-2.32-3.58-5.01-4.2-7.81-.53-2.87-.32-5.82.54-8.59,1.71-5.54,6.03-10.33,11.95-12.52,16.38,18.55,34.21,35.82,53.3,51.59l14.6,11.47c.61.47,1.21.97,1.83,1.42l1.89,1.35,3.78,2.69,7.57,5.38,3.78,2.69c1.26.89,2.59,1.69,3.89,2.54l7.81,5.01c2.61,1.66,5.2,3.36,7.83,4.99l8.05,4.63c3.15-8.88,5.34-17.26,6.72-25.15.34-1.97.64-3.92.88-5.83.25-1.93.48-3.86.65-5.74.34-3.78.5-7.44.49-11-.02-7.12-.77-13.74-2.06-20.06-1.2-6.46-2.99-12.54-5.34-18.27-.57-1.45-1.24-2.8-1.83-4.28-.61-1.45-1.25-2.88-1.93-4.3-1.35-2.83-2.83-5.58-4.44-8.26-.8-1.34-1.64-2.66-2.5-3.97-.81-1.37-1.65-2.73-2.52-4.07-1.74-2.69-3.59-5.31-5.56-7.89-.97-1.3-2.03-2.52-3-3.86-.98-1.33-1.98-2.65-3.01-3.96-2.06-2.62-4.22-5.2-6.48-7.74-1.16-1.24-2.22-2.6-3.33-3.92-1.11-1.32-2.24-2.64-3.4-3.95-1.16-1.31-2.33-2.61-3.53-3.91-1.18-1.31-2.47-2.55-3.6-3.94,0,0,.16.24.45.69.28.47.74,1.12,1.31,1.97,1.13,1.71,2.7,4.22,4.45,7.47,1.77,3.24,3.64,7.3,5.81,11.71,1.05,2.24,2.1,4.65,3.12,7.23.51,1.29,1.01,2.61,1.5,3.98.24.69.48,1.38.73,2.08.26.69.52,1.37.78,2.06,2.06,5.57,3.9,11.77,5.32,18.56,1.57,6.6,2.77,13.73,3.29,21.45.13,1.93.22,3.89.27,5.88.08,1.94.12,3.92.11,5.93-.02,4.02-.25,8.18-.71,12.46-.92,8.55-2.8,17.62-5.97,27.02l-11.46-8.13-5.72-4.07c-1.89-1.38-3.7-2.88-5.55-4.31l-11.05-8.68c-.93-.71-1.81-1.48-2.7-2.25l-2.66-2.3-5.31-4.6c-7.21-5.98-13.8-12.66-20.62-19.07-1.73-1.58-3.31-3.31-4.93-5l-4.85-5.08-4.85-5.08c-.8-.86-1.63-1.68-2.4-2.56l-2.3-2.65c8.43-2.01,17.02-4.44,25.35-6.94,8.35-2.51,16.56-5.17,24.61-7.98l-8.59-9.03-4.3-4.51-4.07-4.72c-10.06,2.86-20.38,5.52-30.82,7.88-10.3,2.24-20.81,4.24-31.51,5.99-6.91,1.12-12.25,5.54-14.71,11.14-2.48,5.59-2.05,12.39,2.24,17.81Z"/>
          <path class="cls-2" d="M62.47,655.47l3.47-1.27c9.58-3.51,18.74-5.7,27.42-6.95l4.2,10.68c1.42,3.55,2.73,7.15,4.38,10.6l4.72,10.46,2.36,5.23c.76,1.75,1.71,3.42,2.56,5.13,2.14,4.19,3.63,8.61,4.51,13.18.22,1.14.4,2.3.54,3.46.14,1.16.32,2.29.42,3.45.22,2.31.29,4.65.21,7-.16,4.71-.91,9.51-2.25,14.27-.33,1.19-.71,2.38-1.11,3.56-.38,1.17-.79,2.33-1.24,3.49-.9,2.31-1.96,4.61-3.16,6.87l-1.56,2.95,8.14,12.67,8.71,12.28c1.46-3.21,2.94-6.39,4.44-9.55,2.19-4.62,3.78-9.35,4.77-14.07,1.08-4.78,1.65-9.59,1.59-14.27-.03-4.69-.73-9.23-1.9-13.65-1.07-4.48-2.75-8.77-5.06-12.79l-2.12-3.69c-.7-1.23-1.44-2.45-2.06-3.73l-3.88-7.58-3.88-7.58c-.63-1.27-1.33-2.51-1.9-3.81l-1.76-3.88-7-15.53-6.25-15.85c9.88-.92,19.08-.64,27.58.44,4.26.54,8.29,1.3,12.24,2.18,4.01.86,7.85,1.88,11.51,3.03,3.67,1.15,7.16,2.43,10.48,3.8,1.67.69,3.27,1.41,4.86,2.13,1.64.7,3.24,1.42,4.8,2.16,3.12,1.48,6.06,3.03,8.84,4.62,1.39.8,2.74,1.6,4.04,2.42,1.3.82,2.56,1.64,3.88,2.42,5.16,3.16,9.65,6.39,13.49,9.48.48.39.95.77,1.42,1.15.48.37.96.73,1.43,1.09.93.72,1.83,1.43,2.67,2.12,1.7,1.38,3.23,2.71,4.6,3.94,1.36,1.23,2.56,2.38,3.59,3.4.51.52.98,1,1.42,1.44.45.43.87.83,1.24,1.19,1.48,1.44,2.24,2.29,2.24,2.29-.58-.81-1.17-1.61-1.75-2.41-.59-.79-1.18-1.59-1.71-2.42-1.09-1.64-2.19-3.25-3.3-4.84-2.21-3.19-4.57-6.22-6.84-9.23-2.17-3.07-4.42-6.04-6.75-8.88-1.17-1.42-2.35-2.82-3.56-4.18-1.16-1.39-2.27-2.79-3.45-4.14-2.33-2.71-4.77-5.29-7.31-7.74-.65-.61-1.29-1.22-1.93-1.82-.65-.6-1.23-1.22-1.87-1.82-1.24-1.2-2.52-2.38-3.83-3.51-2.61-2.28-5.35-4.42-8.23-6.42-.72-.5-1.45-.99-2.18-1.48-.72-.49-1.43-.98-2.13-1.47-1.43-.96-2.9-1.89-4.41-2.78-3.02-1.78-6.19-3.41-9.52-4.89-3.33-1.48-6.87-2.79-10.36-4.01-7.09-2.4-14.9-4.14-23.49-5.09-4.29-.48-8.79-.75-13.48-.81-4.68-.07-9.47.06-14.53.45-10.1.77-21.08,2.52-32.97,5.52h0s-3.98,1.08-3.98,1.08l2.21,7.72,2.56,7.61,5.17,15.21Z"/>
          <path class="cls-2" d="M79.99,562.86c.57,3.2,1.57,6.19,2.99,8.96,1.43,2.77,3.22,5.33,5.67,7.59,4.8,4.55,10.59,7.59,17.38,9.12,6.8,1.54,13.71,1.31,20.77-.49s13.32-4.9,18.79-9.11c5.48-4.21,9.49-8.91,12.01-14.11,1.21-2.59,2.2-5.2,2.66-7.79.47-2.59.47-5.18,0-7.79-.24-1.3-.58-2.56-1.03-3.79-.23-.61-.48-1.21-.76-1.8-.27-.59-.52-1.18-.83-1.76-1.2-2.31-2.85-4.47-4.95-6.51-2.09-2.04-4.5-3.83-7.2-5.39-1.35-.78-2.78-1.5-4.28-2.16-1.52-.66-3.08-1.26-4.67-1.81-6.45-2.18-13.32-3.05-20.58-2.41-7.26.64-13.92,2.71-19.93,6.42-1.52.93-2.91,1.92-4.18,2.98-1.28,1.06-2.47,2.18-3.57,3.38-2.2,2.39-4.03,5.05-5.49,7.98-1.47,2.93-2.46,5.96-2.99,9.06-.13.77-.25,1.56-.29,2.34-.03.78-.04,1.56-.02,2.35.05,1.57.22,3.16.5,4.75ZM112.02,535.25c-.19-1.52.13-2.7.96-3.56.83-.85,1.92-1.35,3.27-1.49,1.35-.14,2.59.15,3.7.85,1.12.7,1.76,1.72,1.93,3.07l1.33,10.49.33,2.62c.1.88.21,1.75.39,2.61l.94,5.2,1.85,10.4.46,2.6c.15.87.39,1.72.57,2.58l1.2,5.15c.31,1.32.05,2.49-.76,3.51-.8,1.03-1.87,1.7-3.19,2.01-1.15.27-2.32.13-3.5-.45-1.17-.58-1.92-1.55-2.24-2.9l-1.22-5.27c-.19-.88-.44-1.75-.59-2.64l-.47-2.67-1.9-10.66-.96-5.33c-.18-.89-.29-1.78-.4-2.68l-.34-2.69-1.36-10.75Z"/>
          <path class="cls-2" d="M124.39,413.09c-4.58-3.31-9.16-6.71-13.68-10.19-4.42-3.46-8.82-7.01-13.2-10.65-4.38-3.64-8.74-7.37-13.09-11.19-2.17-1.91-4.33-3.84-6.49-5.8l-3.23-2.95-3.13-2.96c-8.33-7.93-16.57-16.21-24.68-24.85-2.03-2.16-4.06-4.34-6.06-6.54-1.95-2.18-3.9-4.39-5.83-6.61-3.87-4.45-7.71-8.99-11.52-13.61-11.09,32.5-18.96,66.1-23.47,100.1l5.7,4.6,1.1-8.64.56-4.32c.17-1.44.48-2.86.71-4.3l3.05-17.16.78-4.29c.25-1.43.62-2.84.93-4.26l1.95-8.5,1.97-8.49.99-4.24c.35-1.41.77-2.8,1.16-4.2,2.11,2.21,4.15,4.38,6.33,6.56,2.17,2.18,4.35,4.33,6.54,6.46,4.37,4.26,8.77,8.43,13.19,12.5l-1.89,8.22c-.34,1.37-.56,2.75-.82,4.14l-.75,4.15-2.96,16.61c-.77,5.57-1.45,11.15-2.17,16.73l-1.05,8.37-.65,8.4c-.42,5.6-.88,11.2-1.24,16.81l-.44,16.84c-.05,2.81-.17,5.61-.17,8.42l.2,8.42c.16,5.61.24,11.23.48,16.84l4.11-.29h0c24.37-2.25,43.92-7.89,59.38-15.37,3.87-1.88,7.49-3.87,10.86-5.98,3.39-2.11,6.46-4.33,9.56-6.64,6.09-4.64,11.3-9.67,15.73-15.06,2.14-2.7,4.44-5.46,6.43-8.32,2.01-2.86,3.85-5.8,5.53-8.83.85-1.51,1.59-3.05,2.43-4.6.85-1.54,1.67-3.11,2.44-4.69,1.55-3.17,2.96-6.42,4.23-9.76.31-.83.62-1.67.93-2.52.31-.84.69-1.68,1.01-2.53.67-1.69,1.32-3.4,1.93-5.13,1.24-3.46,2.31-7.01,3.35-10.63,1.22-3.58,2.34-7.23,3.37-10.96.51-1.87,1.01-3.75,1.48-5.66.52-1.89,1.14-3.77,1.67-5.69,0,0-.54,1.33-1.7,3.62-.62,1.13-1.24,2.55-2.04,4.16-.8,1.61-1.75,3.42-2.87,5.38-2.21,3.94-5.27,8.48-8.5,13.49-1.68,2.49-3.55,5.07-5.63,7.7-1.04,1.32-2.13,2.64-3.27,3.98-1.08,1.35-2.17,2.71-3.33,4.08-2.32,2.73-4.86,5.48-7.63,8.22-2.75,2.74-5.85,5.45-8.86,8.15-6.16,5.38-13.33,10.55-21.61,15.16-2.1,1.15-4.13,2.27-6.29,3.35-2.15,1.08-4.38,2.11-6.68,3.09-4.6,1.97-9.51,3.73-14.75,5.22-10.47,2.98-22.24,4.89-35.46,4.99.38-32.54,4.04-65.1,10.99-96.96,2.77,2.49,5.55,4.95,8.34,7.37,2.82,2.43,5.74,4.84,8.61,7.2,5.78,4.73,11.58,9.31,17.41,13.74,2.92,2.22,5.84,4.4,8.76,6.54l4.4,3.19,4.53,3.15c6.05,4.16,12.11,8.18,18.19,12.04.54-4.12,1.01-8.25,1.59-12.36l2.2-12.26Z"/>
          <path class="cls-2" d="M164.5,404.76l1.26-5.5.62-2.75c.21-.92.51-1.81.76-2.72l3.09-10.85c-8.69-7.15-16.78-14.49-24.93-22.24-4.06-3.87-8.1-7.83-12.1-11.88-1.99-2.02-4.03-4.08-5.95-6.12-1.93-2.04-3.85-4.11-5.76-6.2-7.64-8.35-15.16-17.04-22.53-26.08-7.22-8.97-14.14-18.21-20.99-27.82l-6.2,13.73c-.54,1.14-.98,2.31-1.44,3.48l-1.39,3.5-2.76,7c3.67,4.57,7.38,9.05,11.11,13.45,1.84,2.19,3.82,4.4,5.76,6.58,1.95,2.18,3.9,4.33,5.87,6.47,7.87,8.55,15.79,16.72,23.95,24.59,16.72,15.85,33.54,30.2,51.64,43.37Z"/>
          <path class="cls-2" d="M95.31,248.72h0c24.14,40.37,52.21,76.27,84.12,107.31l4.12-10.51,4.65-10.29c-3.53-3.9-7.04-7.88-10.5-11.93-3.43-4.03-6.7-8.08-10.01-12.24-6.57-8.29-13.04-16.9-19.3-25.78-6.07-8.77-11.99-17.83-17.75-27.18l-4.28-7.06c-1.42-2.38-2.83-4.77-4.15-7.13-2.69-4.75-5.33-9.57-7.93-14.45,18.41-28.95,39.89-55.92,63.94-80.37,9.22,9.48,16.14,19.2,21.4,28.76,5.25,9.56,8.82,18.95,11.19,27.91,2.54,9.13,3.91,17.88,4.43,26.04.2,4.04.44,8.15.42,12.03,0,3.89-.18,7.63-.5,11.21-1.04,14.45-3.89,26.55-6.26,35.35-.63,2.17-1.26,4.12-1.85,5.81-.61,1.69-1.01,3.22-1.45,4.42-.83,2.43-1.41,3.74-1.41,3.74.99-1.73,1.96-3.45,2.89-5.18l.7-1.3.76-1.25c.5-.84.99-1.68,1.49-2.51,1.96-3.35,3.79-6.71,5.5-10.08.81-1.71,1.78-3.31,2.64-4.96.88-1.64,1.72-3.28,2.53-4.93.81-1.65,1.58-3.31,2.32-4.98.36-.84.72-1.67,1.08-2.51.35-.84.76-1.63,1.12-2.44,1.49-3.25,2.82-6.53,3.98-9.87.58-1.67,1.13-3.34,1.63-5.04.52-1.68,1.09-3.29,1.56-4.96.97-3.32,1.77-6.7,2.38-10.14.31-1.72.57-3.46.78-5.22.24-1.73.48-3.43.65-5.18.7-6.95.57-14.23-.4-21.81-.83-7.43-2.56-15.22-5.35-23.38-1.39-4.08-3.05-8.26-4.99-12.52-1.94-4.27-4.18-8.63-6.66-13.01-5-8.8-11.26-17.98-19.05-27.45h0s-2.69-3.14-2.69-3.14c-20.27,18.05-39.06,37.74-56.15,58.83l-6.29,8-3.14,4.01-1.57,2c-.51.68-.99,1.38-1.49,2.07l-11.8,16.6c-3.73,5.67-7.36,11.41-11.03,17.12-.89,1.44-1.87,2.83-2.7,4.32l-2.54,4.41-5.08,8.83h0Z"/>
          <path class="cls-2" d="M236.98,93.82c-2.33,1.66-4.36,3.56-6.06,5.69-1.63,2.22-2.94,4.66-3.91,7.31-1.95,5.31-2.41,10.8-1.38,16.46,1.03,5.67,3.49,10.74,7.28,15.33,3.77,4.56,8.34,8,13.57,10.36,5.23,2.36,10.41,3.42,15.54,3.16,2.56-.13,4.96-.6,7.2-1.42,2.31-.74,4.47-1.81,6.49-3.24,4.05-2.86,6.9-6.77,8.77-11.67,1.95-4.77,2.61-9.98,1.98-15.62-.64-5.64-2.48-11.01-5.63-16.04-3.15-5.03-7.18-9-12.19-11.84-5-2.84-10.38-4.17-16.14-4-5.66.3-10.85,2.21-15.53,5.52Z"/>
        </g>
        <path class="cls-1" d="M305.4,114.43l-6.66,3.83c-1.12.62-2.2,1.31-3.27,2.01l-3.23,2.07-30.33-48.36,3.66-2.34c1.22-.79,2.44-1.57,3.71-2.27l7.54-4.34,28.59,49.41Z"/>
      </g>
      <g>
        <g>
          <path class="cls-2" d="M441.9,6l-17.12,3.06-2.14.39-2.12.48-4.24.97-8.47,1.95-8.47,1.97c-2.8.74-5.58,1.56-8.37,2.34l-8.37,2.38-4.18,1.19c-1.39.4-2.79.77-4.16,1.26l-16.48,5.57-4.12,1.4c-1.37.47-2.7,1.04-4.06,1.56l-8.09,3.18c-10.88,4.04-21.33,9.08-31.91,13.82-.15,2.41-.26,4.87-.38,7.3,1-.5,1.99-1.03,3-1.51l3.06-1.39,6.12-2.77,12.25-5.51,12.5-4.94,6.25-2.46c1.04-.4,2.08-.83,3.13-1.21l3.18-1.08,12.73-4.31,6.37-2.13,6.46-1.85,12.93-3.67,3.23-.91,3.27-.76,6.55-1.52c6.25-1.43,12.1.71,16.02,4.95,3.94,4.3,5.93,10.44,4.85,16.63-24.26,4.95-48.13,11.78-71.32,20.46-5.75,2.28-11.53,4.51-17.26,6.85l-16.92,7.65c-2.85,1.21-5.56,2.72-8.32,4.11l-8.26,4.23c-5.57,2.71-10.87,5.92-16.24,8.99,6.13,7.16,12.31,13.25,18.47,18.39,3.08,2.57,6.16,4.91,9.23,7.02,3.11,2.19,6.21,4.16,9.3,5.93,6.19,3.54,12.33,6.26,18.43,8.25,1.5.47,3.04.96,4.61,1.45,1.55.47,3.09.89,4.64,1.27,3.09.76,6.17,1.35,9.24,1.78,24.67,3.68,49.89-1.02,77.85-7.01,0,0-4.48.55-11.86.25-.92-.04-1.89-.09-2.91-.16-.51-.03-1.02-.07-1.55-.1-.52-.02-1.05-.03-1.59-.05-2.16-.08-4.49-.23-6.96-.47-2.47-.24-5.08-.56-7.82-.99-1.36-.19-2.79-.51-4.18-.68-1.41-.2-2.84-.43-4.31-.69-2.93-.52-5.96-1.17-9.09-1.97-1.56-.4-3.15-.83-4.76-1.3l-2.43-.73c-.81-.23-1.61-.46-2.42-.69-6.49-1.92-13.29-4.52-20.24-7.95-1.75-.89-3.46-1.7-5.19-2.61-1.73-.9-3.46-1.87-5.2-2.89-3.48-2.04-6.97-4.32-10.46-6.87-6.95-5.08-13.92-11.31-20.41-18.6,1.05-.52,2.07-1.1,3.14-1.57l3.2-1.45,6.4-2.89,6.4-2.89,3.2-1.45,3.27-1.29c8.73-3.4,17.36-7.05,26.31-9.87l6.65-2.25,3.33-1.13c1.11-.38,2.22-.75,3.35-1.05l13.52-3.84c2.25-.63,4.5-1.3,6.76-1.9l6.85-1.58,13.69-3.16c-2.44,8.54-4.66,17.04-6.68,25.49-1.01,4.22-1.97,8.43-2.87,12.63l-1.32,6.29-1.2,6.41c1-.28,1.99-.58,2.99-.84l3.03-.69,6.06-1.39,6.06-1.4c2.02-.45,4.03-1,6.08-1.31,5.15-20.12,11.5-40.88,19.26-60.78,2.5-6.49,1.36-13.34-2.26-18.32-1.8-2.49-4.22-4.52-7.06-5.81-1.42-.64-2.94-1.1-4.53-1.35-1.59-.19-3.24-.13-4.94.17Z"/>
          <path class="cls-2" d="M604.42,6.8l-.63,3.64c-1.74,10.05-4.41,19.06-7.65,27.15-15.08-2.51-30.29-4.28-45.56-5.25-2.35-.16-4.66-.56-6.94-1-2.28-.39-4.52-.95-6.73-1.66-4.4-1.42-8.63-3.46-12.63-6.04-2-1.3-3.94-2.74-5.81-4.17-1.87-1.47-3.68-3.07-5.4-4.8-3.45-3.45-6.58-7.41-9.27-11.81l-1.77-2.86c-2.5.09-5.01.08-7.51.26l-7.5.56-15,1.15c2.05,2.9,4.06,5.8,6.04,8.71,2.9,4.25,6.2,8.05,9.79,11.32,1.79,1.64,3.66,3.15,5.58,4.52,1.92,1.38,3.91,2.58,5.95,3.81,4.08,2.38,8.35,4.2,12.76,5.39,4.41,1.21,8.96,1.68,13.59,1.9l17.03.43c5.67.31,11.33.83,16.99,1.23l4.25.32c1.42.11,2.83.19,4.24.4l8.45,1.07,8.45,1.07,4.23.54,4.19.75c-2.06,4.48-4.29,8.62-6.66,12.54-2.38,3.98-4.89,7.68-7.48,11.14-5.2,6.91-10.74,12.82-16.38,17.87-11.35,10.61-23.05,17.66-33.72,23.4-2.67,1.37-5.26,2.59-7.77,3.67-2.51,1.14-4.93,2.3-7.23,3.24-4.61,1.93-8.78,3.35-12.3,4.39-7,2.48-11.46,3.32-11.46,3.32,3.98-.29,7.9-.71,11.76-1.14,3.88-.25,7.7-.6,11.46-1.07,1.88-.23,3.75-.5,5.6-.79l1.39-.23,1.38-.16c.92-.12,1.83-.23,2.74-.35,3.64-.49,7.23-1.12,10.76-1.89,1.76-.36,3.52-.86,5.25-1.21,1.73-.36,3.44-.75,5.14-1.19,3.4-.87,6.74-1.91,10.04-3.12,3.3-1.29,6.51-2.42,9.67-3.82,3.16-1.39,6.28-2.98,9.34-4.77,1.53-.89,3.05-1.84,4.55-2.84,1.51-1.02,2.98-1.93,4.44-2.98,2.93-2.06,5.81-4.35,8.63-6.87,2.82-2.52,5.59-5.28,8.29-8.29,1.35-1.5,2.68-3.07,4-4.7,1.31-1.59,2.6-3.23,3.87-4.95,10.15-13.72,19.26-31.77,25.96-55.38h0s1.04-3.99,1.04-3.99l-15.65-3.6c-5.25-1.06-10.53-1.93-15.8-2.89Z"/>
          <path class="cls-2" d="M675.98,67.98c-1.5-.63-3.06-.98-4.61-1.28-1.55-.29-3.12-.45-4.68-.5-3.13-.1-6.28.28-9.42,1.15-6.26,1.63-11.84,5.33-16.57,10.49-4.74,5.18-8,11.31-9.96,18.34-1.97,7.02-2.39,13.96-1.46,20.74.93,6.8,3.06,12.44,6.23,17.47,1.6,2.47,3.4,4.53,5.43,6.18,1.02.82,2.09,1.54,3.22,2.16,1.13.63,2.34,1.1,3.56,1.62,4.92,1.97,10.11,2.06,15.78.34,2.85-.91,5.53-1.93,8.22-3.46,2.67-1.51,5.3-3.41,7.86-5.69,5.13-4.56,9.34-10.12,12.41-16.73,3.08-6.61,4.59-13.38,4.35-20.37-.12-3.5-.65-6.82-1.6-9.97-.96-3.12-2.28-6.21-4.13-8.83-3.66-5.36-8.6-9.27-14.64-11.65ZM683.9,109.56c1.39.63,2.24,1.54,2.56,2.7.31,1.17.19,2.37-.36,3.61s-1.41,2.16-2.56,2.75c-1.16.6-2.35.61-3.58.05l-2.4-1.09c-.8-.37-1.63-.65-2.45-.99l-4.92-1.93-9.83-3.88c-1.62-.69-3.32-1.18-4.98-1.76l-5-1.69-10-3.4c-1.3-.38-2.2-1.15-2.68-2.35-.49-1.19-.55-2.44-.16-3.74.34-1.13,1.05-2.08,2.15-2.83,1.09-.74,2.31-.94,3.64-.55l10.25,3.48,5.13,1.73c1.7.59,3.44,1.1,5.1,1.81l10.07,3.98,5.04,1.98c.84.34,1.69.64,2.51,1.01l2.47,1.12Z"/>
          <path class="cls-2" d="M783.33,181.44c5.14-2.28,10.35-4.5,15.63-6.67,2.64-1.08,5.3-2.15,7.97-3.2,2.67-1.05,5.29-2.01,7.96-2.99,10.66-3.9,21.58-7.55,32.76-10.94l4.2-1.26,4.16-1.17c2.78-.77,5.58-1.53,8.39-2.26,5.63-1.48,11.31-2.89,17.06-4.23,5.74-1.33,11.58-2.63,17.4-3.8,5.77-1.12,11.6-2.17,17.49-3.15-22.56-25.8-47.63-49.39-74.76-70.34l-6.81,2.59,13.69,10.75c2.31,1.76,4.49,3.67,6.69,5.57l6.58,5.69,6.57,5.71,1.64,1.43,1.58,1.5,3.16,2.99,12.59,12.01c-11.97,2.99-23.69,6.25-35.12,9.79l-3.05-2.9c-1.04-.94-2.11-1.85-3.17-2.78l-6.37-5.52c-4.26-3.66-8.44-7.43-12.92-10.82l-13.26-10.41c-4.53-3.32-9.14-6.54-13.71-9.81-2.3-1.61-4.56-3.29-6.9-4.84l-7.09-4.56-7.1-4.55c-2.38-1.5-4.71-3.08-7.17-4.43l-14.62-8.41c-1.22-.69-2.43-1.41-3.67-2.08l-3.75-1.93-7.51-3.85-1.81,3.71h0c-10.28,22.3-15.05,41.84-16.29,58.9-.67,8.65-.42,16.68.6,24.14.5,3.75,1.26,7.27,2.1,10.82.83,3.57,1.84,7.01,3.02,10.33,1.18,3.32,2.54,6.52,4.05,9.6,1.49,3.13,3.03,6.31,4.79,9.31,1.74,3.02,3.64,5.93,5.68,8.76,1.94,2.96,4.01,5.87,6.23,8.69,1.11,1.41,2.25,2.8,3.43,4.18.59.68,1.19,1.37,1.78,2.06.58.71,1.16,1.43,1.74,2.14,2.35,2.84,4.83,5.62,7.44,8.35,2.67,2.66,5.16,5.6,7.87,8.38,1.35,1.4,2.72,2.79,4.12,4.18,1.39,1.39,2.86,2.72,4.2,4.21,0,0-.21-.29-.61-.85-.38-.57-.98-1.37-1.73-2.4-1.49-2.07-3.54-5.12-5.79-9.08-.56-.99-1.14-2.03-1.73-3.14-.29-.55-.58-1.12-.88-1.69-.32-.56-.64-1.13-.96-1.7-1.29-2.32-2.6-4.85-3.89-7.58-1.29-2.73-2.55-5.7-3.78-8.82-1.32-3.02-2.58-6.24-3.75-9.66-1.17-3.42-2.25-7.04-3.2-10.85-1.04-3.68-1.96-7.55-2.71-11.61-.75-4.06-1.32-8.31-1.69-12.74-.17-2.24-.34-4.42-.45-6.67-.11-2.25-.16-4.54-.14-6.87.08-9.33,1.22-19.38,3.91-29.99,1.37-5.33,3.05-10.68,5.26-16.21,2.2-5.52,4.88-11.17,8.15-16.91,28.01,16.66,54.36,36.11,78.42,58.09-14.3,4.73-28.27,9.97-41.72,15.54-3.34,1.37-6.76,2.88-10.12,4.38-3.36,1.51-6.69,3.03-9.99,4.59-6.6,3.1-13.09,6.3-19.45,9.58,6.48,5.2,13.21,10.11,19.36,15.71Z"/>
          <path class="cls-2" d="M770.49,220.33l8.2,7.8c2.67,2.66,5.21,5.46,7.83,8.17,5.21-1.91,10.49-3.76,15.83-5.55,5.31-1.76,10.57-3.35,15.96-4.93,5.37-1.57,10.8-3.07,16.3-4.5,2.75-.72,5.51-1.42,8.28-2.1,2.78-.69,5.57-1.35,8.31-1.94,11.03-2.43,22.29-4.58,33.77-6.44,2.86-.46,5.76-.92,8.64-1.33,2.85-.39,5.7-.76,8.58-1.12,5.74-.71,11.54-1.34,17.39-1.9l-4.36-6.13-2.18-3.06c-.72-1.03-1.45-2.04-2.24-3.02l-9.29-11.83c-2.89.45-5.76.91-8.62,1.39l-4.28.74-4.32.82c-5.76,1.12-11.47,2.3-17.11,3.56s-11.23,2.58-16.76,3.97c-2.77.7-5.5,1.4-8.26,2.15-2.78.77-5.54,1.56-8.29,2.37-10.99,3.22-21.74,6.71-32.22,10.44-10.59,3.85-21.04,8.06-31.14,12.45Z"/>
          <path class="cls-2" d="M940.31,238.39h0c-2.92.03-5.82.09-8.71.17-2.94.1-5.88.24-8.81.38-5.85.3-11.65.67-17.41,1.13s-11.46.98-17.11,1.59c-2.81.29-5.68.65-8.54,1.03-2.85.38-5.7.77-8.52,1.19-11.33,1.67-22.38,3.58-33.33,5.87-11.08,2.39-21.93,5.06-32.54,8.01l6.99,8.9c.58.74,1.18,1.47,1.75,2.22l1.63,2.31,3.27,4.62c5.13-1.11,10.31-2.15,15.55-3.12,2.61-.48,5.26-.97,7.86-1.4l7.8-1.21c10.45-1.55,21.1-2.83,31.91-3.84l4.06-.36,4.01-.29,8.05-.5c5.39-.3,10.82-.53,16.3-.69,5.47-.16,10.99-.24,16.54-.26,5.51,0,10.95.15,16.48.33,15.91,30.4,28.57,62.52,37.66,95.63-12.82,3.24-24.69,4.36-35.56,4.12-5.44-.12-10.63-.59-15.57-1.33-2.47-.37-4.88-.81-7.23-1.3-2.36-.49-4.74-1.02-7.02-1.62-9.15-2.37-17.36-5.56-24.64-9.2-7.57-3.54-14.28-7.51-20.1-11.63l-1.08-.77-1.12-.75-2.18-1.51c-1.43-1.01-2.81-2.03-4.13-3.04-2.65-2.03-5.08-4.06-7.32-6.05-.55-.5-1.1-1-1.64-1.49-.56-.48-1.12-.95-1.67-1.42-1.08-.94-2.12-1.87-3.1-2.78-1.96-1.82-3.72-3.56-5.28-5.2-1.58-1.62-2.87-3.18-4.13-4.49-1.25-1.31-2.3-2.48-3.14-3.45-1.68-1.94-2.52-3.1-2.52-3.1.99,1.73,2,3.43,3.02,5.11.52.84,1.03,1.67,1.54,2.5.52.82.95,1.7,1.44,2.53,1.9,3.37,3.87,6.65,5.92,9.82,2.14,3.13,3.98,6.34,6.02,9.38,2.03,3.05,4.16,6,6.39,8.83,2.06,2.91,4.2,5.71,6.48,8.38,1.14,1.34,2.31,2.65,3.51,3.93,1.19,1.28,2.47,2.52,3.61,3.78,4.7,5.01,10.05,9.51,15.89,13.52,5.62,4.08,11.91,7.63,18.95,10.57,1.76.74,3.57,1.44,5.42,2.09,1.8.67,3.64,1.31,5.54,1.9,3.79,1.19,7.79,2.21,12,3.05,16.84,3.34,37.14,3.92,61.34-.03h0s4.05-.75,4.05-.75c-5.53-26.6-13.22-52.76-23-78.11-9.78-25.34-21.57-49.94-35.58-73.21h0Z"/>
          <path class="cls-2" d="M1003.74,438.64c-.65-5.7-2.84-10.78-6.37-15.14-1.78-2.18-3.78-4.06-6.01-5.64-1.12-.79-2.29-1.5-3.52-2.14-1.26-.63-2.59-1.19-3.96-1.67-5.51-1.93-11.19-2.35-17.04-1.37-5.86.98-11.06,3.2-15.64,6.52-1.15.83-2.21,1.7-3.21,2.61-1.03.91-2,1.86-2.89,2.85-1.78,1.98-3.28,4.11-4.48,6.4-2.43,4.58-3.28,9.25-2.71,14.17.37,4.94,2.2,9.38,5.48,13.46,1.64,2.04,3.54,3.85,5.68,5.44,2.18,1.59,4.41,2.96,7.01,4.1,5.15,2.28,10.69,3.38,16.63,3.17,5.93-.21,11.41-1.7,16.43-4.61,2.48-1.45,4.8-3.18,6.63-5.17,1.87-1.99,3.46-4.25,4.76-6.77,2.59-5.05,3.67-10.5,3.22-16.21Z"/>
        </g>
        <polygon class="cls-1" points="951.64 487.52 951.24 472.15 1008.29 470.15 1008.72 487.52 951.64 487.52"/>
      </g>
    </g>
  </g>
</svg>